<mxfile host="Electron" agent="Mozilla/5.0 (Windows NT 10.0; Win64; x64) AppleWebKit/537.36 (KHTML, like Gecko) draw.io/24.7.8 Chrome/128.0.6613.36 Electron/32.0.1 Safari/537.36" version="24.7.8">
  <diagram name="Page-1" id="2-whnnNBcFKEoTaCORXn">
    <mxGraphModel dx="1434" dy="836" grid="1" gridSize="10" guides="1" tooltips="1" connect="1" arrows="1" fold="1" page="1" pageScale="1" pageWidth="827" pageHeight="1169" math="0" shadow="0">
      <root>
        <mxCell id="0" />
        <mxCell id="1" parent="0" />
        <mxCell id="rGCrZKe-typf3aHiz2Yx-1" value="CLIENTS" style="swimlane;fontStyle=0;childLayout=stackLayout;horizontal=1;startSize=26;horizontalStack=0;resizeParent=1;resizeParentMax=0;resizeLast=0;collapsible=1;marginBottom=0;align=center;fontSize=14;" vertex="1" parent="1">
          <mxGeometry x="440" y="235" width="160" height="146" as="geometry" />
        </mxCell>
        <mxCell id="rGCrZKe-typf3aHiz2Yx-2" value="&lt;b&gt;&lt;u&gt;ID_Client&lt;/u&gt;&lt;/b&gt;" style="text;strokeColor=none;fillColor=none;spacingLeft=4;spacingRight=4;overflow=hidden;rotatable=0;points=[[0,0.5],[1,0.5]];portConstraint=eastwest;fontSize=12;whiteSpace=wrap;html=1;" vertex="1" parent="rGCrZKe-typf3aHiz2Yx-1">
          <mxGeometry y="26" width="160" height="30" as="geometry" />
        </mxCell>
        <mxCell id="rGCrZKe-typf3aHiz2Yx-3" value="Last_Name" style="text;strokeColor=none;fillColor=none;spacingLeft=4;spacingRight=4;overflow=hidden;rotatable=0;points=[[0,0.5],[1,0.5]];portConstraint=eastwest;fontSize=12;whiteSpace=wrap;html=1;" vertex="1" parent="rGCrZKe-typf3aHiz2Yx-1">
          <mxGeometry y="56" width="160" height="30" as="geometry" />
        </mxCell>
        <mxCell id="rGCrZKe-typf3aHiz2Yx-4" value="First_Name" style="text;strokeColor=none;fillColor=none;spacingLeft=4;spacingRight=4;overflow=hidden;rotatable=0;points=[[0,0.5],[1,0.5]];portConstraint=eastwest;fontSize=12;whiteSpace=wrap;html=1;" vertex="1" parent="rGCrZKe-typf3aHiz2Yx-1">
          <mxGeometry y="86" width="160" height="30" as="geometry" />
        </mxCell>
        <mxCell id="rGCrZKe-typf3aHiz2Yx-5" value="Phone" style="text;strokeColor=none;fillColor=none;spacingLeft=4;spacingRight=4;overflow=hidden;rotatable=0;points=[[0,0.5],[1,0.5]];portConstraint=eastwest;fontSize=12;whiteSpace=wrap;html=1;" vertex="1" parent="rGCrZKe-typf3aHiz2Yx-1">
          <mxGeometry y="116" width="160" height="30" as="geometry" />
        </mxCell>
        <mxCell id="rGCrZKe-typf3aHiz2Yx-6" value="SERVICES" style="swimlane;fontStyle=0;childLayout=stackLayout;horizontal=1;startSize=26;horizontalStack=0;resizeParent=1;resizeParentMax=0;resizeLast=0;collapsible=1;marginBottom=0;align=center;fontSize=14;" vertex="1" parent="1">
          <mxGeometry x="220" y="530" width="160" height="236" as="geometry" />
        </mxCell>
        <mxCell id="rGCrZKe-typf3aHiz2Yx-7" value="&lt;b&gt;&lt;u&gt;ID_Service&lt;/u&gt;&lt;/b&gt;" style="text;strokeColor=none;fillColor=none;spacingLeft=4;spacingRight=4;overflow=hidden;rotatable=0;points=[[0,0.5],[1,0.5]];portConstraint=eastwest;fontSize=12;whiteSpace=wrap;html=1;" vertex="1" parent="rGCrZKe-typf3aHiz2Yx-6">
          <mxGeometry y="26" width="160" height="30" as="geometry" />
        </mxCell>
        <mxCell id="rGCrZKe-typf3aHiz2Yx-8" value="Date" style="text;strokeColor=none;fillColor=none;spacingLeft=4;spacingRight=4;overflow=hidden;rotatable=0;points=[[0,0.5],[1,0.5]];portConstraint=eastwest;fontSize=12;whiteSpace=wrap;html=1;" vertex="1" parent="rGCrZKe-typf3aHiz2Yx-6">
          <mxGeometry y="56" width="160" height="30" as="geometry" />
        </mxCell>
        <mxCell id="rGCrZKe-typf3aHiz2Yx-19" value="Article" style="text;strokeColor=none;fillColor=none;spacingLeft=4;spacingRight=4;overflow=hidden;rotatable=0;points=[[0,0.5],[1,0.5]];portConstraint=eastwest;fontSize=12;whiteSpace=wrap;html=1;" vertex="1" parent="rGCrZKe-typf3aHiz2Yx-6">
          <mxGeometry y="86" width="160" height="30" as="geometry" />
        </mxCell>
        <mxCell id="rGCrZKe-typf3aHiz2Yx-17" value="Quantity" style="text;strokeColor=none;fillColor=none;spacingLeft=4;spacingRight=4;overflow=hidden;rotatable=0;points=[[0,0.5],[1,0.5]];portConstraint=eastwest;fontSize=12;whiteSpace=wrap;html=1;" vertex="1" parent="rGCrZKe-typf3aHiz2Yx-6">
          <mxGeometry y="116" width="160" height="30" as="geometry" />
        </mxCell>
        <mxCell id="rGCrZKe-typf3aHiz2Yx-9" value="Price" style="text;strokeColor=none;fillColor=none;spacingLeft=4;spacingRight=4;overflow=hidden;rotatable=0;points=[[0,0.5],[1,0.5]];portConstraint=eastwest;fontSize=12;whiteSpace=wrap;html=1;" vertex="1" parent="rGCrZKe-typf3aHiz2Yx-6">
          <mxGeometry y="146" width="160" height="30" as="geometry" />
        </mxCell>
        <mxCell id="rGCrZKe-typf3aHiz2Yx-18" value="Total" style="text;strokeColor=none;fillColor=none;spacingLeft=4;spacingRight=4;overflow=hidden;rotatable=0;points=[[0,0.5],[1,0.5]];portConstraint=eastwest;fontSize=12;whiteSpace=wrap;html=1;" vertex="1" parent="rGCrZKe-typf3aHiz2Yx-6">
          <mxGeometry y="176" width="160" height="30" as="geometry" />
        </mxCell>
        <mxCell id="rGCrZKe-typf3aHiz2Yx-20" value="Total_Final" style="text;strokeColor=none;fillColor=none;spacingLeft=4;spacingRight=4;overflow=hidden;rotatable=0;points=[[0,0.5],[1,0.5]];portConstraint=eastwest;fontSize=12;whiteSpace=wrap;html=1;" vertex="1" parent="rGCrZKe-typf3aHiz2Yx-6">
          <mxGeometry y="206" width="160" height="30" as="geometry" />
        </mxCell>
        <mxCell id="rGCrZKe-typf3aHiz2Yx-10" value="ADDRESSES" style="swimlane;fontStyle=0;childLayout=stackLayout;horizontal=1;startSize=26;horizontalStack=0;resizeParent=1;resizeParentMax=0;resizeLast=0;collapsible=1;marginBottom=0;align=center;fontSize=14;" vertex="1" parent="1">
          <mxGeometry y="220" width="160" height="176" as="geometry" />
        </mxCell>
        <mxCell id="rGCrZKe-typf3aHiz2Yx-12" value="&lt;b&gt;&lt;u&gt;ID_Adress&lt;/u&gt;&lt;/b&gt;" style="text;strokeColor=none;fillColor=none;spacingLeft=4;spacingRight=4;overflow=hidden;rotatable=0;points=[[0,0.5],[1,0.5]];portConstraint=eastwest;fontSize=12;whiteSpace=wrap;html=1;" vertex="1" parent="rGCrZKe-typf3aHiz2Yx-10">
          <mxGeometry y="26" width="160" height="30" as="geometry" />
        </mxCell>
        <mxCell id="rGCrZKe-typf3aHiz2Yx-15" value="Address" style="text;strokeColor=none;fillColor=none;spacingLeft=4;spacingRight=4;overflow=hidden;rotatable=0;points=[[0,0.5],[1,0.5]];portConstraint=eastwest;fontSize=12;whiteSpace=wrap;html=1;" vertex="1" parent="rGCrZKe-typf3aHiz2Yx-10">
          <mxGeometry y="56" width="160" height="30" as="geometry" />
        </mxCell>
        <mxCell id="rGCrZKe-typf3aHiz2Yx-14" value="Address_Number" style="text;strokeColor=none;fillColor=none;spacingLeft=4;spacingRight=4;overflow=hidden;rotatable=0;points=[[0,0.5],[1,0.5]];portConstraint=eastwest;fontSize=12;whiteSpace=wrap;html=1;" vertex="1" parent="rGCrZKe-typf3aHiz2Yx-10">
          <mxGeometry y="86" width="160" height="30" as="geometry" />
        </mxCell>
        <mxCell id="rGCrZKe-typf3aHiz2Yx-13" value="ZIP_Code" style="text;strokeColor=none;fillColor=none;spacingLeft=4;spacingRight=4;overflow=hidden;rotatable=0;points=[[0,0.5],[1,0.5]];portConstraint=eastwest;fontSize=12;whiteSpace=wrap;html=1;" vertex="1" parent="rGCrZKe-typf3aHiz2Yx-10">
          <mxGeometry y="116" width="160" height="30" as="geometry" />
        </mxCell>
        <mxCell id="rGCrZKe-typf3aHiz2Yx-16" value="City" style="text;strokeColor=none;fillColor=none;spacingLeft=4;spacingRight=4;overflow=hidden;rotatable=0;points=[[0,0.5],[1,0.5]];portConstraint=eastwest;fontSize=12;whiteSpace=wrap;html=1;" vertex="1" parent="rGCrZKe-typf3aHiz2Yx-10">
          <mxGeometry y="146" width="160" height="30" as="geometry" />
        </mxCell>
        <mxCell id="rGCrZKe-typf3aHiz2Yx-22" style="edgeStyle=orthogonalEdgeStyle;rounded=0;orthogonalLoop=1;jettySize=auto;html=1;exitX=0;exitY=0.5;exitDx=0;exitDy=0;" edge="1" parent="1" source="rGCrZKe-typf3aHiz2Yx-21" target="rGCrZKe-typf3aHiz2Yx-10">
          <mxGeometry relative="1" as="geometry" />
        </mxCell>
        <mxCell id="rGCrZKe-typf3aHiz2Yx-23" style="edgeStyle=orthogonalEdgeStyle;rounded=0;orthogonalLoop=1;jettySize=auto;html=1;exitX=1;exitY=0.5;exitDx=0;exitDy=0;" edge="1" parent="1" source="rGCrZKe-typf3aHiz2Yx-21" target="rGCrZKe-typf3aHiz2Yx-1">
          <mxGeometry relative="1" as="geometry" />
        </mxCell>
        <mxCell id="rGCrZKe-typf3aHiz2Yx-21" value="LIVING" style="ellipse;whiteSpace=wrap;html=1;align=center;" vertex="1" parent="1">
          <mxGeometry x="250" y="288" width="100" height="40" as="geometry" />
        </mxCell>
        <mxCell id="rGCrZKe-typf3aHiz2Yx-25" style="edgeStyle=orthogonalEdgeStyle;rounded=0;orthogonalLoop=1;jettySize=auto;html=1;exitX=0.5;exitY=0;exitDx=0;exitDy=0;" edge="1" parent="1" source="rGCrZKe-typf3aHiz2Yx-24" target="rGCrZKe-typf3aHiz2Yx-1">
          <mxGeometry relative="1" as="geometry" />
        </mxCell>
        <mxCell id="rGCrZKe-typf3aHiz2Yx-26" style="edgeStyle=orthogonalEdgeStyle;rounded=0;orthogonalLoop=1;jettySize=auto;html=1;exitX=0.5;exitY=1;exitDx=0;exitDy=0;" edge="1" parent="1" source="rGCrZKe-typf3aHiz2Yx-24" target="rGCrZKe-typf3aHiz2Yx-6">
          <mxGeometry relative="1" as="geometry" />
        </mxCell>
        <mxCell id="rGCrZKe-typf3aHiz2Yx-24" value="COMMANDING" style="ellipse;whiteSpace=wrap;html=1;align=center;" vertex="1" parent="1">
          <mxGeometry x="470" y="565" width="100" height="40" as="geometry" />
        </mxCell>
        <mxCell id="rGCrZKe-typf3aHiz2Yx-32" style="edgeStyle=orthogonalEdgeStyle;rounded=0;orthogonalLoop=1;jettySize=auto;html=1;exitX=1;exitY=0.5;exitDx=0;exitDy=0;" edge="1" parent="1" source="rGCrZKe-typf3aHiz2Yx-31" target="rGCrZKe-typf3aHiz2Yx-6">
          <mxGeometry relative="1" as="geometry" />
        </mxCell>
        <mxCell id="rGCrZKe-typf3aHiz2Yx-33" style="edgeStyle=orthogonalEdgeStyle;rounded=0;orthogonalLoop=1;jettySize=auto;html=1;exitX=0.5;exitY=0;exitDx=0;exitDy=0;" edge="1" parent="1" source="rGCrZKe-typf3aHiz2Yx-31" target="rGCrZKe-typf3aHiz2Yx-10">
          <mxGeometry relative="1" as="geometry" />
        </mxCell>
        <mxCell id="rGCrZKe-typf3aHiz2Yx-31" value="DELIVER" style="ellipse;whiteSpace=wrap;html=1;align=center;" vertex="1" parent="1">
          <mxGeometry x="30" y="628" width="100" height="40" as="geometry" />
        </mxCell>
        <mxCell id="rGCrZKe-typf3aHiz2Yx-36" value="1 : 1" style="text;html=1;align=center;verticalAlign=middle;resizable=0;points=[];autosize=1;strokeColor=none;fillColor=none;" vertex="1" parent="1">
          <mxGeometry x="390" y="278" width="50" height="30" as="geometry" />
        </mxCell>
        <mxCell id="rGCrZKe-typf3aHiz2Yx-37" value="1 : N" style="text;html=1;align=center;verticalAlign=middle;resizable=0;points=[];autosize=1;strokeColor=none;fillColor=none;" vertex="1" parent="1">
          <mxGeometry x="520" y="381" width="50" height="30" as="geometry" />
        </mxCell>
        <mxCell id="rGCrZKe-typf3aHiz2Yx-38" value="1 : N" style="text;html=1;align=center;verticalAlign=middle;resizable=0;points=[];autosize=1;strokeColor=none;fillColor=none;" vertex="1" parent="1">
          <mxGeometry x="380" y="618" width="50" height="30" as="geometry" />
        </mxCell>
        <mxCell id="rGCrZKe-typf3aHiz2Yx-39" value="1 : N" style="text;html=1;align=center;verticalAlign=middle;resizable=0;points=[];autosize=1;strokeColor=none;fillColor=none;" vertex="1" parent="1">
          <mxGeometry x="160" y="278" width="50" height="30" as="geometry" />
        </mxCell>
        <mxCell id="rGCrZKe-typf3aHiz2Yx-40" value="1 : N" style="text;html=1;align=center;verticalAlign=middle;resizable=0;points=[];autosize=1;strokeColor=none;fillColor=none;" vertex="1" parent="1">
          <mxGeometry x="80" y="396" width="50" height="30" as="geometry" />
        </mxCell>
        <mxCell id="rGCrZKe-typf3aHiz2Yx-41" value="1 : 1" style="text;html=1;align=center;verticalAlign=middle;resizable=0;points=[];autosize=1;strokeColor=none;fillColor=none;" vertex="1" parent="1">
          <mxGeometry x="170" y="618" width="50" height="30" as="geometry" />
        </mxCell>
      </root>
    </mxGraphModel>
  </diagram>
</mxfile>
